<?xml version="1.0" encoding="UTF-8" standalone="no"?>
<svg
   clip-rule="evenodd"
   stroke-miterlimit="10"
   viewBox="0 0 577.29 354.33"
   version="1.1"
   id="svg23"
   sodipodi:docname="Atlanta_Motor_Speedway.svg"
   inkscape:version="1.4.3 (0d15f75, 2025-12-25)"
   xmlns:inkscape="http://www.inkscape.org/namespaces/inkscape"
   xmlns:sodipodi="http://sodipodi.sourceforge.net/DTD/sodipodi-0.dtd"
   xmlns="http://www.w3.org/2000/svg"
   xmlns:svg="http://www.w3.org/2000/svg">
  <sodipodi:namedview
     id="namedview23"
     pagecolor="#ffffff"
     bordercolor="#000000"
     borderopacity="0.25"
     inkscape:showpageshadow="2"
     inkscape:pageopacity="0.0"
     inkscape:pagecheckerboard="0"
     inkscape:deskcolor="#d1d1d1"
     inkscape:zoom="2.401716"
     inkscape:cx="288.54369"
     inkscape:cy="177.16499"
     inkscape:window-width="1920"
     inkscape:window-height="1111"
     inkscape:window-x="-9"
     inkscape:window-y="-9"
     inkscape:window-maximized="1"
     inkscape:current-layer="svg23" />
  <desc
     id="desc1">SVG generated by Lineform</desc>
  <defs
     id="defs1" />
  <g
     id="g23">
    <path
       d="M 288.14 268.33 C 287.98 268.40 280.99 268.28 279.00 268.28 C 253.96 268.28 251.64 283.22 251.57 285.31 C 251.23 295.33 260.30 302.86 273.59 302.89 C 287.95 302.92 301.37 303.04 315.68 303.12 C 328.54 303.19 338.18 298.01 338.53 285.30 C 338.61 282.22 334.73 267.97 311.82 268.32 Z M 314.00 284.75 "
       stroke="#999999"
       stroke-width="6.00"
       fill="none"
       id="path1" />
    <path
       d="M 464.54 262.29 C 423.26 275.52 416.90 256.34 419.18 245.43 C 421.11 236.23 426.04 228.04 440.15 226.13 C 484.68 220.09 490.07 208.08 489.82 196.98 C 489.43 179.26 479.07 177.64 468.87 168.80 C 443.49 146.81 468.92 137.88 421.91 129.47 C 358.53 118.14 296.59 121.66 214.80 106.80 C 177.63 100.04 172.66 126.09 173.82 133.24 C 177.60 156.74 181.07 170.36 203.19 170.66 C 237.10 171.13 306.55 171.34 352.29 170.65 C 382.60 170.20 401.36 204.56 400.71 234.52 C 399.56 288.22 357.90 303.40 336.82 300.83 M 347.08 68.48 "
       stroke="#989898"
       stroke-width="6.00"
       fill="none"
       id="path2" />
    <path
       d="M 252.80 32.23 C 251.85 32.71 211.02 31.93 199.41 31.93 C 53.09 31.93 39.57 133.62 39.16 147.85 C 37.18 216.01 90.13 267.25 167.76 267.47 C 251.64 267.70 330.08 268.52 413.66 269.04 C 488.77 269.50 545.11 234.29 547.14 147.77 C 547.63 126.81 524.93 29.80 391.09 32.21 Z M 403.86 144.04 "
       stroke="#999999"
       stroke-width="6.00"
       fill="none"
       id="path3" />
    <path
       d="M 137.65 42.80 C 122.85 46.84 111.80 48.75 104.91 64.49 C 97.81 80.72 100.37 87.18 74.72 96.53 C 52.73 104.54 42.52 134.05 41.70 154.64 M 103.08 -137.52 "
       stroke="#989898"
       stroke-width="6.00"
       fill="none"
       id="path4" />
    <path
       d="M 391.15 33.44 C 486.38 31.78 549.12 89.40 546.62 156.80 C 544.94 202.41 527.47 246.26 446.80 275.89 C 396.98 294.19 374.99 302.90 357.69 302.90 L 235.18 302.90 C 207.51 302.90 190.81 294.77 137.62 274.12 C 94.47 257.37 39.99 220.95 39.99 154.34 C 39.99 92.76 85.65 32.78 199.03 32.78 Z M 214.67 34.11 "
       stroke="#000000"
       stroke-width="12.02"
       fill="none"
       id="path5" />
    <g
       id="g22">
      <path
         d="M 260.18 319.64 L 260.53 330.77 L 280.62 324.71 Z M 260.18 319.64 "
         fill-rule="non-zero"
         fill="#FF0000"
         id="path6"
         style="fill:#000000;fill-opacity:1" />
      <g
         id="g21">
        <path
           d="M 286.16 292.15 L 286.14 299.39 L 293.37 299.41 L 293.40 292.18 Z M 286.16 292.15 "
           fill-rule="non-zero"
           fill="#000000"
           id="path7" />
        <path
           d="M 293.40 292.18 L 293.37 299.41 L 300.61 299.44 L 300.63 292.20 Z M 293.40 292.18 "
           fill-rule="non-zero"
           fill="#FFFFFF"
           id="path8" />
        <path
           d="M 300.63 292.20 L 300.61 299.44 L 307.84 299.46 L 307.87 292.23 Z M 300.63 292.20 "
           fill-rule="non-zero"
           fill="#000000"
           id="path9" />
        <path
           d="M 286.14 299.32 L 286.12 306.56 L 293.35 306.58 L 293.37 299.35 Z M 286.14 299.32 "
           fill-rule="non-zero"
           fill="#FFFFFF"
           id="path10" />
        <path
           d="M 300.61 299.37 L 300.58 306.61 L 307.82 306.63 L 307.84 299.40 Z M 300.61 299.37 "
           fill-rule="non-zero"
           fill="#FFFFFF"
           id="path11" />
        <path
           d="M 293.37 299.29 L 293.35 306.52 L 300.58 306.54 L 300.61 299.31 Z M 293.37 299.29 "
           fill-rule="non-zero"
           fill="#000000"
           id="path12" />
        <path
           d="M 286.12 306.50 L 286.09 313.73 L 293.33 313.75 L 293.35 306.52 Z M 286.12 306.50 "
           fill-rule="non-zero"
           fill="#000000"
           id="path13" />
        <path
           d="M 293.35 306.52 L 293.33 313.75 L 300.56 313.78 L 300.58 306.54 Z M 293.35 306.52 "
           fill-rule="non-zero"
           fill="#FFFFFF"
           id="path14" />
        <path
           d="M 300.58 306.54 L 300.56 313.78 L 307.79 313.80 L 307.82 306.57 Z M 300.58 306.54 "
           fill-rule="non-zero"
           fill="#000000"
           id="path15" />
        <path
           d="M 286.09 313.67 L 286.07 320.90 L 293.30 320.92 L 293.33 313.69 Z M 286.09 313.67 "
           fill-rule="non-zero"
           fill="#FFFFFF"
           id="path16" />
        <path
           d="M 300.56 313.71 L 300.54 320.95 L 307.77 320.97 L 307.79 313.74 Z M 300.56 313.71 "
           fill-rule="non-zero"
           fill="#FFFFFF"
           id="path17" />
        <path
           d="M 293.33 313.63 L 293.30 320.86 L 300.54 320.89 L 300.56 313.65 Z M 293.33 313.63 "
           fill-rule="non-zero"
           fill="#000000"
           id="path18" />
        <path
           d="M 285.81 320.71 L 285.79 327.94 L 293.02 327.97 L 293.05 320.73 Z M 285.81 320.71 "
           fill-rule="non-zero"
           fill="#000000"
           id="path19" />
        <path
           d="M 293.05 320.73 L 293.02 327.97 L 300.26 327.99 L 300.28 320.76 Z M 293.05 320.73 "
           fill-rule="non-zero"
           fill="#FFFFFF"
           id="path20" />
        <path
           d="M 300.28 320.76 L 300.26 327.99 L 307.49 328.02 L 307.52 320.78 Z M 300.28 320.76 "
           fill-rule="non-zero"
           fill="#000000"
           id="path21" />
      </g>
    </g>
  </g>
</svg>
