<?xml version="1.0" encoding="UTF-8" standalone="no"?>
<svg
   version="1.1"
   viewBox="0 0 3000 1760"
   id="svg68"
   sodipodi:docname="Bristol_Motor_Speedway_2024.svg"
   width="3000"
   height="1760"
   inkscape:version="1.4.3 (0d15f75, 2025-12-25)"
   xmlns:inkscape="http://www.inkscape.org/namespaces/inkscape"
   xmlns:sodipodi="http://sodipodi.sourceforge.net/DTD/sodipodi-0.dtd"
   xmlns="http://www.w3.org/2000/svg"
   xmlns:svg="http://www.w3.org/2000/svg">
  <sodipodi:namedview
     id="namedview68"
     pagecolor="#ffffff"
     bordercolor="#000000"
     borderopacity="0.25"
     inkscape:showpageshadow="2"
     inkscape:pageopacity="0.0"
     inkscape:pagecheckerboard="0"
     inkscape:deskcolor="#d1d1d1"
     showguides="true"
     inkscape:zoom="0.42271012"
     inkscape:cx="1499.8458"
     inkscape:cy="855.19598"
     inkscape:window-width="1920"
     inkscape:window-height="1111"
     inkscape:window-x="-9"
     inkscape:window-y="-9"
     inkscape:window-maximized="1"
     inkscape:current-layer="svg68" />
  <defs
     id="defs1">
    <style
       id="style1">
      .cls-1 {
        fill: #010101;
      }

      .cls-2 {
        fill: #ee302d;
      }

      .cls-3 {
        fill: none;
        stroke: #ee302d;
        stroke-width: 13.9px;
      }

      .cls-3, .cls-4 {
        stroke-miterlimit: 10;
      }

      .cls-5 {
        isolation: isolate;
      }

      .cls-6, .cls-4 {
        fill: #fff;
      }

      .cls-4 {
        stroke: #010101;
        stroke-width: 5px;
      }
    </style>
  </defs>
  <!-- Generator: Adobe Illustrator 28.7.1, SVG Export Plug-In . SVG Version: 1.2.0 Build 142)  -->
  <g
     id="g68">
    <g
       id="Layer_1">
      <g
         id="g3">
        <g
           class="cls-5"
           id="g2">
          <g
             class="cls-5"
             id="g1" />
        </g>
      </g>
      <g
         id="g6">
        <g
           class="cls-5"
           id="g5">
          <g
             class="cls-5"
             id="g4" />
        </g>
      </g>
      <g
         id="g9">
        <g
           class="cls-5"
           id="g8">
          <g
             class="cls-5"
             id="g7" />
        </g>
      </g>
      <g
         id="g12">
        <g
           class="cls-5"
           id="g11">
          <g
             class="cls-5"
             id="g10" />
        </g>
      </g>
      <g
         class="cls-5"
         id="g33">
        <g
           class="cls-5"
           id="g32" />
      </g>
      <g
         id="g35">
        <path
           d="m 2459.2,657.3 c 3.4,0 6.2,0.5 8.6,1.5 2.4,1 4.3,2.3 5.8,3.9 1.5,1.6 2.6,3.4 3.2,5.5 0.7,2.1 1,4.2 1,6.4 0,2.2 -0.3,4.3 -1,6.3 -0.7,2.1 -1.8,3.9 -3.2,5.5 -1.5,1.6 -3.4,2.9 -5.8,3.9 -2.4,1 -5.2,1.5 -8.6,1.5 h -12.4 V 711 H 2435 v -53.7 z m -3.2,25.3 c 1.4,0 2.7,0 3.9,-0.3 1.2,-0.3 2.4,-0.6 3.3,-1.2 0.9,-0.6 1.7,-1.4 2.3,-2.4 0.6,-1 0.9,-2.4 0.9,-4.1 0,-1.7 -0.3,-3.1 -0.9,-4.1 -0.6,-1 -1.3,-1.9 -2.3,-2.4 -0.9,-0.6 -2.1,-1 -3.3,-1.2 -1.2,-0.2 -2.6,-0.3 -3.9,-0.3 h -9.2 v 16.1 h 9.2 z"
           id="path33" />
        <path
           d="M 2497,657.3 V 711 h -11.8 v -53.7 z"
           id="path34" />
        <path
           d="m 2503.1,667.2 v -9.9 h 44 v 9.9 H 2531 V 711 h -11.8 v -43.8 z"
           id="path35" />
      </g>
      <g
         id="g38">
        <path
           d="m 464,983.5 c 3.4,0 6.2,0.5 8.6,1.5 2.4,1 4.3,2.3 5.8,3.9 1.5,1.6 2.6,3.4 3.2,5.5 0.7,2.1 1,4.2 1,6.4 0,2.2 -0.3,4.3 -1,6.3 -0.7,2.1 -1.8,3.9 -3.2,5.5 -1.5,1.6 -3.4,2.9 -5.8,3.9 -2.4,1 -5.2,1.5 -8.6,1.5 h -12.4 v 19.2 h -11.8 v -53.7 z m -3.3,25.2 c 1.4,0 2.7,0 3.9,-0.3 1.2,-0.3 2.4,-0.6 3.3,-1.2 1,-0.6 1.7,-1.4 2.3,-2.4 0.6,-1 0.9,-2.4 0.9,-4.1 0,-1.7 -0.3,-3.1 -0.9,-4.1 -0.6,-1 -1.3,-1.9 -2.3,-2.4 -1,-0.6 -2.1,-1 -3.3,-1.2 -1.2,-0.2 -2.6,-0.3 -3.9,-0.3 h -9.2 v 16.1 h 9.2 z"
           id="path36" />
        <path
           d="m 501.7,983.5 v 53.7 h -11.8 v -53.7 z"
           id="path37" />
        <path
           d="m 507.9,993.4 v -9.9 h 44 v 9.9 h -16.1 v 43.8 H 524 v -43.8 z"
           id="path38" />
      </g>
      <polygon
         points="2525.8,602.9 2495.7,603.6 2481.4,630.2 2470.3,562.1 "
         id="polygon38" />
      <path
         class="cls-1"
         d="M 2681.7,356.1 C 2621,298.4 2547.1,251.5 2462.1,216.6 2382.4,184 2295.5,163.7 2210.6,158 h -0.7 C 2209.9,158 858,101.3 858,101.3 h -2.2 c -101.5,0 -199.9,19.2 -292.6,57 C 473.5,194.9 393,247.3 323.8,314.1 254.5,381 200,459 162,545.8 c -39.5,90.1 -59.5,185.8 -59.5,284.4 0,238.4 108.2,452.1 296.9,586.3 105.4,74.9 236.6,120.2 401.2,138.2 86.7,9.5 173.7,9.7 258.1,9.7 h 1026.7 c 165,0 323.6,-47.2 330.3,-49.2 l 2.5,-0.8 c 139.4,-49.8 258.7,-137.5 345,-253.5 88.7,-119.3 135.6,-259.8 135.6,-406.4 0,-146.6 -79.1,-367.2 -217.1,-498.3 v 0 z m -297.2,1059.4 c -14.3,4.2 -156.9,44.4 -299.1,44.4 H 1063.7 c -83.1,0 -169,0 -251.8,-9.1 -146.4,-16.1 -261.6,-55.1 -352.1,-119.5 -97.3,-69.2 -169.5,-163.5 -211.3,-272.3 2.1,2.5 4.2,5 6.5,7.4 24.9,26.5 58.7,43.2 82.2,71 22.1,30.8 44.3,62 68.9,90.8 41.5,48.9 88.5,91.1 147.7,117.1 42.8,18.8 88.5,30.3 134.7,36.8 38.3,5.4 77.5,7 116.2,7 38.7,0 8.2,0 12.3,0 11.7,0 23.4,0 35,0 18.4,0 36.7,0 55.1,0 24.2,0 48.3,0 72.5,0 29.1,0 58.1,0 87.2,-0.1 33.1,0 66.1,0 99.2,-0.1 36.2,0 72.3,0 108.5,-0.1 38.4,0 76.7,0 115.1,-0.2 39.7,0 79.3,0 119,-0.2 40.1,0 80.2,0 120.3,-0.2 39.6,0 79.2,0 118.8,-0.2 38.2,0 76.4,0 114.7,-0.2 35.9,0 71.9,0 107.8,-0.1 32.8,0 65.6,0 98.3,-0.1 28.7,0 57.4,0 86.1,-0.1 23.7,0 47.5,0 71.2,0 17.9,0 35.8,0 53.6,0 h 11.4 c 123.5,0 234.3,-41.8 320.5,-111.6 -63.9,61.3 -140.9,108.9 -226.9,139.8 v 0 z m -119.7,-125.8 -1483.2,-0.3 c -253.2,0 -458.4,-205.2 -458.4,-458.4 0,-253.2 0.1,-13.8 0.5,-20.7 1.5,-34.5 6.9,-68.8 16.1,-102 9,-32.3 21.5,-63.6 37.3,-93.2 15.6,-29.2 34.4,-56.6 55.9,-81.8 21.4,-25.1 45.6,-47.8 71.8,-67.8 26.4,-20 55,-37.2 85.2,-51.1 30.7,-14.1 62.9,-24.8 95.9,-31.8 34.9,-7.4 71.1,-11.3 106.7,-9.4 6.6,0.4 1421.3,64.9 1421.3,64.9 0,0 147.1,6.1 242.4,61.5 0,0 1.7,0.8 3.9,2.1 132.4,70.2 222.7,209.4 222.7,369.7 0,231 -187.2,418.2 -418.2,418.2 v 0 z m 477.6,-661 c -2.9,-2.6 -5.8,-5.2 -8.8,-7.6 -6,-5 -12.2,-9.7 -18.4,-14.4 -12.4,-9.4 -25,-18.7 -36.1,-29.6 -9.1,-8.9 -16.5,-19.3 -24.3,-29.2 -20.6,-26 -41.5,-51.9 -64.4,-76 -21.7,-22.7 -45.3,-43.8 -71.8,-60.9 -9.3,-6 -19,-11.5 -29,-16.5 -54.9,-27.1 -115.5,-41.8 -176,-49.4 -42.5,-5.3 -85.6,-6.2 -128.3,-8 -48.6,-2.1 -97.3,-4.3 -145.9,-6.4 -68.7,-3 -137.4,-6 -206.1,-9.1 -79.9,-3.5 -159.9,-7.1 -239.8,-10.6 -82.3,-3.7 -164.6,-7.4 -246.9,-11.1 -75.8,-3.4 -151.6,-6.9 -227.4,-10.4 -60.5,-2.8 -120.9,-5.6 -181.4,-8.5 -22.1,-1.1 -44.2,-2.1 -66.4,-3.2 -2.1,-0.1 -4.2,-0.2 -6.4,-0.3 -24.7,-1.3 -49.5,-2.8 -74.2,-3.1 -8.6,-0.1 -17.2,-0.2 -25.8,0 0,0 0,0 0.1,0 -165.9,0 -316.1,67.4 -424.6,176.2 17.1,-21.4 35.7,-41.9 55.8,-61.3 59.6,-57.5 129,-102.7 206.3,-134.3 79.8,-32.6 164.6,-49.2 252.1,-49.3 l 1349.4,56.6 c 153.3,10.5 304.9,73.9 405.5,169.6 61.5,58.5 109.2,128.6 140.7,204.8 -1.1,-2.7 -5.9,-5.8 -8.1,-7.8 v 0 z"
         id="path39" />
      <g
         id="g66">
        <rect
           x="1510.3"
           y="1609.6"
           width="16.5"
           height="16.5"
           id="rect39" />
        <rect
           class="cls-6"
           x="1493.8"
           y="1609.6"
           width="16.5"
           height="16.5"
           id="rect40" />
        <rect
           class="cls-6"
           x="1510.3"
           y="1593.1"
           width="16.5"
           height="16.5"
           id="rect41" />
        <rect
           class="cls-6"
           x="1493.8"
           y="1576.6"
           width="16.5"
           height="16.5"
           id="rect42" />
        <rect
           class="cls-6"
           x="1510.3"
           y="1560.1"
           width="16.5"
           height="16.5"
           id="rect43" />
        <rect
           class="cls-6"
           x="1493.8"
           y="1543.7"
           width="16.5"
           height="16.5"
           id="rect44" />
        <rect
           class="cls-6"
           x="1510.3"
           y="1527.2"
           width="16.5"
           height="16.5"
           id="rect45" />
        <rect
           class="cls-6"
           x="1493.8"
           y="1510.7"
           width="16.5"
           height="16.5"
           id="rect46" />
        <rect
           class="cls-6"
           x="1510.3"
           y="1494.2"
           width="16.5"
           height="16.5"
           id="rect47" />
        <rect
           class="cls-6"
           x="1493.8"
           y="1477.8"
           width="16.5"
           height="16.5"
           id="rect48" />
        <rect
           class="cls-6"
           x="1510.3"
           y="1461.3"
           width="16.5"
           height="16.5"
           id="rect49" />
        <rect
           class="cls-6"
           x="1493.8"
           y="1444.8"
           width="16.5"
           height="16.5"
           id="rect50" />
        <rect
           class="cls-6"
           x="1510.3"
           y="1428.3"
           width="16.5"
           height="16.5"
           id="rect51" />
        <rect
           class="cls-6"
           x="1493.8"
           y="1411.9"
           width="16.5"
           height="16.5"
           id="rect52" />
        <rect
           class="cls-6"
           x="1510.3"
           y="1395.4"
           width="16.5"
           height="16.5"
           id="rect53" />
        <rect
           x="1493.8"
           y="1593.1"
           width="16.5"
           height="16.5"
           id="rect54" />
        <rect
           x="1510.3"
           y="1576.6"
           width="16.5"
           height="16.5"
           id="rect55" />
        <rect
           x="1493.8"
           y="1560.1"
           width="16.5"
           height="16.5"
           id="rect56" />
        <rect
           x="1510.3"
           y="1543.7"
           width="16.5"
           height="16.5"
           id="rect57" />
        <rect
           x="1493.8"
           y="1527.2"
           width="16.5"
           height="16.5"
           id="rect58" />
        <rect
           x="1510.3"
           y="1510.7"
           width="16.5"
           height="16.5"
           id="rect59" />
        <rect
           x="1493.8"
           y="1494.2"
           width="16.5"
           height="16.5"
           id="rect60" />
        <rect
           x="1510.3"
           y="1477.8"
           width="16.5"
           height="16.5"
           id="rect61" />
        <rect
           x="1493.8"
           y="1461.3"
           width="16.5"
           height="16.5"
           id="rect62" />
        <rect
           x="1510.3"
           y="1444.8"
           width="16.5"
           height="16.5"
           id="rect63" />
        <rect
           x="1493.8"
           y="1428.3"
           width="16.5"
           height="16.5"
           id="rect64" />
        <rect
           x="1510.3"
           y="1411.9"
           width="16.5"
           height="16.5"
           id="rect65" />
        <rect
           x="1493.8"
           y="1395.4"
           width="16.5"
           height="16.5"
           id="rect66" />
      </g>
      <polygon
         points="457.6,1090.3 490.4,1089.5 506,1060.7 518,1134.7 "
         id="polygon66" />
      <g
         id="g67">
        <line
           class="cls-3"
           x1="1347.3"
           y1="1695.1"
           x2="1624"
           y2="1695.1"
           id="line66"
           style="opacity:1;fill:#000000;fill-opacity:1;stroke:#000000;stroke-opacity:1" />
        <polygon
           class="cls-2"
           points="1603.9,1723.4 1620.3,1695.1 1603.9,1666.7 1673.2,1695.1 "
           id="polygon67"
           style="fill:#000000;fill-opacity:1" />
      </g>
    </g>
  </g>
</svg>
