<?xml version="1.0" encoding="UTF-8" standalone="no"?>
<svg
   version="1.1"
   viewBox="0 0 2950 1730"
   id="svg71"
   sodipodi:docname="Charlotte_Motor_Speedway_2024.svg"
   width="2950"
   height="1730"
   inkscape:version="1.4.3 (0d15f75, 2025-12-25)"
   xmlns:inkscape="http://www.inkscape.org/namespaces/inkscape"
   xmlns:sodipodi="http://sodipodi.sourceforge.net/DTD/sodipodi-0.dtd"
   xmlns="http://www.w3.org/2000/svg"
   xmlns:svg="http://www.w3.org/2000/svg">
  <sodipodi:namedview
     id="namedview71"
     pagecolor="#ffffff"
     bordercolor="#000000"
     borderopacity="0.25"
     inkscape:showpageshadow="2"
     inkscape:pageopacity="0.0"
     inkscape:pagecheckerboard="0"
     inkscape:deskcolor="#d1d1d1"
     inkscape:zoom="0.43632075"
     inkscape:cx="1500.0433"
     inkscape:cy="975.20001"
     inkscape:window-width="1920"
     inkscape:window-height="1111"
     inkscape:window-x="-9"
     inkscape:window-y="-9"
     inkscape:window-maximized="1"
     inkscape:current-layer="Layer_1" />
  <defs
     id="defs1">
    <style
       id="style1">
      .cls-1 {
        fill: #010101;
      }

      .cls-2 {
        fill: #ee302d;
      }

      .cls-3 {
        fill: none;
        stroke: #ee302d;
        stroke-width: 13.9px;
      }

      .cls-3, .cls-4 {
        stroke-miterlimit: 10;
      }

      .cls-5 {
        isolation: isolate;
      }

      .cls-6 {
        fill: #c4c4c4;
      }

      .cls-7, .cls-4 {
        fill: #fff;
      }

      .cls-8 {
        opacity: .6;
      }

      .cls-4 {
        stroke: #010101;
        stroke-width: 5px;
      }
    </style>
  </defs>
  <!-- Generator: Adobe Illustrator 28.7.1, SVG Export Plug-In . SVG Version: 1.2.0 Build 142)  -->
  <g
     id="g71">
    <g
       id="Layer_1">
      <g
         class="cls-8"
         id="g17">
        <path
           class="cls-6"
           d="m 1325.9,1453.7 c -43,0 -77.8,-34.8 -77.8,-77.8 0,-43 34.8,-77.8 77.8,-77.8 l -78.7,-1.1 c -21.5,19.5 -35.1,47.6 -35.1,78.9 0,31.3 14.5,61.4 37.3,81 h 76.3 v -3.1"
           id="path13" />
        <path
           class="cls-6"
           d="m 1674.4,1453.7 v 3.1 h 75.7 c 21.7,-19 35.5,-46.8 35.5,-77.9 0,-31.1 -11.7,-54.6 -30.5,-73.3 l -80.7,-1.2 c 41.2,0 74.7,33.4 74.7,74.7 0,41.3 -33.4,74.7 -74.7,74.7"
           id="path14" />
        <path
           class="cls-6"
           d="m 1214.9,1441.9 c -9.1,-7.8 -15.7,-18.5 -18.3,-30.2 -1.2,-5.2 -1.1,-10.4 -0.9,-15.7 0.7,-21.6 -4.9,-40.5 -21.2,-55.4 -7.6,-6.7 -16.1,-11.9 -25.8,-15.1 -10.6,-3.4 -21.5,-3.2 -32.6,-2.7 -13.2,0.7 -26.3,2.8 -39.4,4.7 -13.4,1.9 -26.8,3.7 -40.2,5.3 -23.7,2.8 -47.6,4.5 -71.5,4.7 -3.2,0 -6.5,0 -9.7,0 -59.1,-0.7 -119.8,-4.9 -177.6,-18.3 -36.2,-8.4 -71.9,-19.7 -107.6,-30.3 l -30.4,-9.8 -27.9,42.8 138.7,50 c 21.3,7.7 43.7,10.4 66,13.6 24.2,3.4 48.5,6.5 73,8.3 22.3,1.7 44.2,1.6 66.3,-1.4 52.5,-7 105.3,-13.5 156.5,-27.4 0.2,0 0.5,-0.1 0.8,-0.2 3,-0.8 6,-1.7 9.1,-1.9 7.5,-0.6 15.8,4.2 16.7,12.1 0.9,7.3 1.3,14.7 2.8,21.9 0.2,0.9 0.4,1.9 0.6,2.8 1.6,7.3 3.8,14.4 6.4,21.4 6.3,16.9 13.7,33.4 22.2,49.4 3.7,6.9 7.7,13.8 13.3,19.2 7.5,7.1 16.3,8.9 26.3,8.9 h 32.2 v -45 c -4.9,-0.1 -10,-0.6 -13.2,-2.2 -5.2,-2.6 -10.2,-5.8 -14.7,-9.6 v 0 z"
           id="path15" />
        <path
           class="cls-6"
           d="M 2680.1,815.3 C 2673,779.9 2649.4,746 2649.4,746 L 2461,447.6 2447.4,425.9 c -25.7,-40.4 -52.7,-74.4 -66.7,-92.4 -17.1,-22 -39.7,-42 -64.4,-55 -16.1,-8.5 -36.2,-10.6 -54.1,-12.3 -22.1,-2.2 -44.4,-2.3 -66.6,-3 -25.1,-0.8 -50.3,-1.6 -75.4,-2.3 -54.6,-1.6 -109.2,-2.8 -163.9,-3.7 -55.5,-0.9 -111,-1.3 -166.5,-1.4 -54.9,0 -109.8,0.1 -164.7,0.5 -36.5,0.2 -73.1,1.3 -109.5,3.8 -26.9,1.9 -54.1,3.3 -79.8,12.3 -26,9.1 -48.7,26.1 -61.6,50.8 -13.6,26.1 -18.2,56 -19.9,85.1 -0.9,14.8 -1.4,29.5 -1.9,44.3 -1.1,36.4 -3.8,74.1 1.6,110.2 3,20.2 8.1,40.1 15.2,59.2 16.1,43.7 41.1,82.5 82.9,105 10.2,5.5 20.9,10.3 31.9,14.5 v 0 c 0,0 6.1,2.6 20,6.6 0.1,0 0.2,0 0.3,0 12.2,3.5 30.2,8.1 55.2,13.2 54.3,10.9 147.9,31.2 182.2,38.6 37.1,8 74.4,16.8 110.5,28.5 42.1,13.7 78.7,36.2 108.1,69.3 16.6,18.7 30.2,39.8 42.9,61.2 12.4,21 20.8,44.3 24.4,68.4 4.5,29.2 2.3,59.3 0.8,88.7 -1.9,36.3 -4.4,72.6 -6.6,108.8 -0.1,2.2 -1.1,22 -1.8,34 v 0.8 c 0,0 -0.4,5.4 -0.4,5.4 l 39.2,0.4 c 2.7,-7.6 4.2,-15.6 4.7,-23.7 0.9,-16.8 1.9,-33.7 2.8,-50.6 1.5,-27.2 3,-54.4 3.8,-81.6 0.3,-9.3 0.6,-18.5 0.8,-27.8 0.3,-10.7 0.6,-21.4 -0.6,-32.1 -1.1,-9.8 -2.6,-19.5 -4.8,-29.2 -2.4,-10.9 -15.3,-54.3 -15.3,-54.3 -12.1,-40.6 -41.1,-74.4 -74.1,-100 -10.1,-7.8 -20.7,-14.8 -31.7,-21.2 11.4,5.3 22.3,11.2 32.7,17.6 18.1,11.3 33.8,26 46.9,42.8 9.6,12.3 17.7,25.8 24.3,39.9 6.7,14.5 10.4,30.1 14.8,45.4 4.9,17.2 9.8,34.4 14.7,51.7 3.1,11 6.3,21.9 9.4,32.9 10.6,37 17.3,75 19.6,113.3 1,17.2 1.6,34.5 1.5,51.8 -0.1,17.4 -0.9,34.8 -2.6,52.1 -1.7,17.2 -4.2,34.4 -7.9,51.3 -1.3,5.8 -2.4,11.7 -4.1,17.4 -3.2,11.2 -9.7,19.8 -20.9,23.7 l 16.6,41.9 21.8,-7.8 c 8.2,-3 15.7,-8 20.7,-15.2 4.8,-6.8 6,-15.2 7.5,-23.2 4.4,-25.7 10.1,-51.1 12.4,-77.1 2.5,-28.7 6.7,-57.3 5.3,-86.2 -0.8,-18.4 -5.8,-35.8 -10.6,-53.5 -4.7,-17.4 -9.4,-34.9 -14.2,-52.3 -5.5,-19.9 -11,-39.9 -16.5,-59.8 -4.9,-17.6 -9.8,-35.3 -14.7,-52.9 -2.9,-10.5 -5.9,-21 -8.8,-31.5 -0.3,-1.1 -0.6,-2.3 -1,-3.4 -3.7,-13.2 -7.8,-24.9 -13.6,-37.5 -13.2,-28.3 -32.5,-54 -55.9,-74.8 -25.2,-22.4 -55.3,-38 -87.7,-47.1 -0.3,0 -0.7,-0.2 -1,-0.3 -16.8,-4.6 -33.9,-7.4 -51,-10.8 l -74.2,-16.2 c -0.8,-0.9 -1.2,-2 -0.7,-3.1 1,-2.2 4.2,-1.9 6.1,-1.8 3.1,0.2 6.2,0.6 9.2,0.9 4.1,0.4 8.1,0.9 12.2,1.3 5.9,0.6 11.8,1.3 17.7,1.9 6.5,0.7 12.9,1.4 19.4,2 6.4,0.7 12.8,1.3 19.1,2 5.6,0.6 11.3,1.1 16.9,1.6 33.6,3.1 48.9,13.3 87.4,28 38.5,14.7 68.8,7.2 68.8,7.2 l 119.8,-22.9 c -17.8,12.4 -33.6,28 -46.7,45.1 -11.4,15 -19.6,32 -26.1,49.6 -5.5,14.9 -9.6,30.3 -11.8,46 -1,7.1 -1.8,14.3 -1.4,21.5 0.3,7.4 2.2,14.2 4.1,21.2 1.5,5.3 2.9,10.7 4.4,16 2,7.3 4,14.6 5.9,21.9 2.4,8.7 4.7,17.4 7.1,26.1 2.6,9.6 5.2,19.1 7.8,28.7 2.7,9.8 5.3,19.7 8,29.5 2.6,9.6 5.2,19.1 7.8,28.7 2.4,8.7 4.7,17.4 7.1,26.2 2,7.3 3.9,14.6 5.9,21.9 1.6,5.8 3.1,11.6 4.7,17.4 3.1,11.4 7.2,22.6 12.6,33.1 6.1,11.9 13.5,23.2 22.2,33.4 2.2,2.6 4.5,5.2 6.7,7.8 l 91.8,1.6 v -7.8 h -7.9 c 0,-0.1 -2,0 -2,0 -8.9,-0.7 -10.3,-6.2 -10.2,-9.8 0,0 -0.2,-2.4 2.4,-4.8 11.9,-10.7 23.8,-21.4 35.7,-32 7.1,-6.4 14.3,-12.7 21.3,-19.1 10,-9.2 21.9,-11.9 34.2,-16.2 14,-4.8 27.9,-9.5 41.7,-14.9 48.4,-18.9 96.2,-41 138.8,-71.1 24.4,-17.3 46.1,-37.8 64.6,-61.3 4.7,-6 9.1,-12.3 13.4,-18.6 26.6,-38 49.3,-83.1 56.1,-129.6 3.4,-23.2 2.3,-47 -2.3,-70.1 v 0 z M 2001.8,291.6 c 59.3,1.4 118.6,3.6 177.9,5.6 -13.3,13.8 -25.6,28.7 -34,45.9 -14.1,28.9 -13.3,61.2 1.7,89.6 7.2,13.8 18.1,25.1 29.4,35.6 20.3,18.7 40.2,37.8 60.3,56.7 5.1,4.8 10.2,9.7 15.3,14.5 13.8,13 21.3,31.2 22.6,50 1.7,25.9 -9.4,50.9 -30.5,66.2 -8.7,6.3 -18.8,11 -28.2,16.2 -11.9,6.5 -23.9,12.7 -35.9,18.9 -21.6,11.2 -49.1,11.1 -69.8,-1.8 -3.9,-2.4 -7.5,-5.3 -10.8,-8.5 -15.2,-14.8 -18.4,-33.9 -22.5,-53.7 -3.1,-15 -6.1,-30.1 -9.1,-45.2 -3.8,-19.3 -7.6,-38.6 -11.4,-57.9 -4,-20.5 -8,-40.9 -12,-61.4 -3.6,-18.5 -7.2,-37.1 -10.8,-55.6 -2.6,-13.5 -5.2,-27 -7.8,-40.5 -5.3,-27.3 -15.7,-54.1 -34.5,-74.7 3.4,0 6.8,0.2 10.2,0.2 v 0 z m 55.5,502.8 c -9,1.5 -18.3,1.8 -27.4,0.8 -15.8,-1.8 -30,-8.3 -44.7,-14.1 -11.3,-4.5 -22.6,-8.9 -33.8,-13.6 -10.5,-4.2 -21.5,-6.7 -32.7,-8.2 -6.1,-0.8 -12.3,-1.3 -18.4,-1.9 -5.8,-0.6 -11.5,-1.2 -17.3,-1.7 -7.5,-0.8 -15,-1.5 -22.5,-2.3 -8.8,-0.9 -17.7,-1.8 -26.6,-2.7 -9.8,-1 -19.7,-2 -29.5,-3 -10.4,-1 -20.9,-2.1 -31.3,-3.2 -10.7,-1.1 -21.3,-2.2 -32,-3.2 -10.5,-1.1 -21,-2.1 -31.6,-3.2 l -30,-3 c -9.1,-0.9 -18.2,-1.8 -27.3,-2.8 -7.8,-0.8 -15.6,-1.6 -23.4,-2.4 -6.2,-0.6 -12.3,-1.3 -18.4,-1.9 -4.1,-0.4 -8.2,-0.9 -12.3,-1.3 -41.4,-4.5 -79.6,-12.7 -79.6,-12.7 q 0,0 0,0 c -11.3,-2.6 -18.1,-4.2 -18.1,-4.2 -45.4,-10 -74.4,-44.5 -92.7,-84.9 -12.5,-27.6 -19.9,-57.4 -20.6,-87.7 -0.7,-28.6 0,-57.2 0.8,-85.8 0,-1 0,-2.1 0,-3.1 0,0 -0.7,-54 3,-73.4 1.8,-9.7 3.8,-19.4 7.6,-28.6 5.4,-13.2 14.6,-25 26.1,-33.7 12.1,-9.1 26.8,-13.9 41.7,-16.5 13.6,-2.4 27.5,-3 41.3,-3.6 9.1,-0.4 18.2,-0.7 27.3,-1 27.7,-1.1 55.3,-2 83,-2.6 21.2,-0.5 42.4,-0.8 63.6,-0.9 6.6,0 13.1,0 19.7,0 27.5,0 55,-0.2 82.5,-0.1 51.7,0.1 103.3,1.1 154.9,2.3 0.2,0 8.6,1.6 19.7,12.7 8.6,8.6 16.8,18.3 22.8,29.1 6.2,11.1 8.9,23 11.7,35.3 0,0 56.4,282.7 56.4,282.7 1.1,5.6 3.5,11.2 5.7,16.5 4.8,11.6 11,22.8 19.3,32.2 19.6,22.4 52.4,33.2 81.6,31.3 16.4,-1 31.7,-7.6 46,-15.2 15.3,-8.1 30.5,-16.4 46,-24.2 13.7,-6.9 26.1,-16.6 36.1,-28.3 18.5,-21.6 25.1,-52.5 23,-80.4 -1.1,-15.2 -5.9,-30 -14,-43 -7.5,-12.1 -18,-22.6 -28.6,-32.2 -0.8,-0.7 -1.6,-1.5 -2.4,-2.2 -13.5,-11.9 -26.9,-23.8 -40.2,-36 -12.1,-11 -24.8,-21.8 -35.1,-34.5 -8.2,-10.1 -15.8,-21.5 -18,-34.7 -2.4,-14.5 -0.5,-29.7 4.6,-43.4 9.7,-26 33.2,-45.4 59.1,-54.1 3,-1 6.1,-1.9 9.3,-2.7 3.9,0.1 7.8,0.2 11.7,0.4 14.4,0.4 29.3,3.3 42.9,8.1 10.3,3.6 20.1,9 28.3,16.4 9,8.1 16.6,18.2 24.4,27.5 8.4,10 16.6,20.3 24.4,30.9 13.5,18.3 26,37.3 38.3,56.4 10.4,16.1 20.6,32.3 30.7,48.5 4.4,7.1 8.9,14.2 13.3,21.3 l 2.5,4.1 3.2,4.7 h -0.2 c 13.5,21.9 24.1,46.6 25.6,72.5 1.7,28.3 -9.8,51.4 -27.8,72.4 -10.1,11.7 -20.3,23.7 -32.6,33.2 -19.8,15.2 -42.9,24.2 -66.4,32 -18.2,6 -36.6,11.5 -55,16.8 -33.6,9 -64.9,14.8 -64.9,14.8 0,0 -153.7,30.5 -182.8,35.4 v 0 z m 117.3,72.7 c 1.7,-3.9 3.6,-7.7 5.7,-11.3 2.3,-3.1 4.8,-6 7.3,-8.9 15.6,-17.6 35.3,-31.2 56.2,-41.9 23,-11.8 47.8,-20.4 72.4,-28.2 26.1,-8.3 52.3,-16.2 78.2,-25.2 5.7,-2 11.3,-4.2 16.8,-6.6 14.5,-6.6 28.2,-14.8 40.7,-24.8 33.1,-26.6 62.3,-64.4 68.9,-107.4 0.3,-2 0.6,-4.1 0.8,-6.1 v 0 l 95.8,156 c 0,0 16.9,27.8 24.2,47.8 -1.4,-0.8 -2.7,-1.6 -3.8,-2.4 -12.5,-9.1 -27.1,-15.3 -42.3,-18 -16.9,-3 -34.6,-1.7 -50.9,3.9 -7.3,2.5 -14.4,5.9 -20.8,10.3 -13.5,9.2 -24.8,21.9 -34.9,34.6 -3,3.7 -5.8,7.5 -8.5,11.5 -6.7,9.8 -88.3,116.9 -88.3,117 -13.4,17.6 -31.1,31.9 -51.3,41.2 -22.3,10.2 -47.3,14.1 -71.6,11.4 -23.7,-2.7 -46.5,-11.8 -64.7,-27.5 -15,-13 -26.2,-29.7 -32.4,-48.6 -8.2,-25.1 -7.9,-52.3 2.6,-76.7 v 0 z m 469.1,42.1 c -1.4,5.6 -3,11.1 -5.1,16.7 -0.2,0.4 -0.3,0.8 -0.5,1.3 -0.8,2 -1.6,3.9 -2.5,5.9 h 0.1 c -11.7,28.7 -27.8,56.8 -47.4,80.6 -21.2,25.7 -47.3,46.2 -75,64.3 -27.8,18.2 -57.2,33.8 -87.8,46.6 -21.3,8.9 -42.9,17.2 -64.7,24.6 -21.8,7.3 -44.1,12.6 -66,19.2 0,0 -52.6,15.7 -81.7,42.1 -21.2,-34.8 -28.5,-60.5 -28.5,-60.5 0,0 -18.2,-65.4 -32.5,-115.6 -5.7,-20.2 -12.9,-40.6 -13.6,-61.8 -0.2,-6.4 0.2,-12.8 1.1,-19.1 1.7,4.9 3.8,9.7 5.9,14 10.8,23.1 27.9,42.9 48.8,57.5 26.6,18.6 58.5,29.1 91,29.1 21.3,0 42.3,-4.4 62.2,-11.9 16.7,-6.3 45,-24 69.1,-54 4.8,-6 9.6,-12.2 14.3,-18.3 6.5,-8.4 13,-16.9 19.5,-25.3 7.3,-9.5 14.5,-19 21.8,-28.5 7.1,-9.3 14.1,-18.6 21.2,-27.9 5.9,-7.8 11.8,-15.6 17.7,-23.4 2.2,-2.9 4.4,-5.8 6.6,-8.8 3.5,-4.6 6.7,-9.5 10.7,-13.7 10.9,-11.3 25.4,-18.2 41,-19.5 10.3,-0.9 20.7,0.5 30.5,3.6 14,4.4 26.7,13.1 35,25.3 11.1,16.5 12.6,38.2 8.7,57.5 v 0 z"
           id="path16" />
        <path
           class="cls-6"
           d="m 1051.9,156.9 c 12.1,7.3 43.3,26.1 59.9,36 12.2,7.3 24.3,14.6 36.6,21.7 7.5,4.4 14.5,8.6 23,10.8 8.1,2.1 16.6,2.7 25,2.5 9.7,-0.2 19.3,-0.3 29,-0.8 11.1,-0.6 22,-2.1 31.4,-8.4 8.1,-5.5 12.1,-14.9 12.5,-24.4 0,0 0.6,-14.7 0.6,-26.2 0,-11.5 2.1,-10.2 4.8,-14.9 l 64.9,-1.1 v 4.7 c -2.3,0.9 -4.6,2 -6.8,3.3 -9.7,5.6 -18.2,14.3 -20.9,25.4 -3,12.4 -0.8,25.5 -4.5,37.7 -2.9,9.7 -8.7,18.3 -15.8,25.4 -5.7,5.8 -12.4,10.5 -19.9,13.6 -14.2,5.9 -29.8,5.6 -44.9,6.1 -18.2,0.6 -36.4,1.5 -54.6,0.5 -14.5,-0.8 -27.6,-10 -40.5,-16.2 -30.4,-15.3 -102.8,-52.7 -146.1,-67.7 -43.4,-15 -78.4,-21.2 -78.4,-21.2 V 159 c 0,0 144.6,-2.3 144.6,-2.3 v 0 z"
           id="path17" />
      </g>
      <path
         class="cls-1"
         d="m 2844.9,464.2 c -34,-74.2 -84,-142.4 -144.7,-197 -65.6,-59.1 -139.1,-101.5 -218.4,-126 -24.3,-7.5 -50.3,-14 -77.3,-19.3 -24.9,-4.9 -51.6,-9 -79.1,-12.2 -34.7,-4 -71.7,-6.5 -110,-7.7 -38.3,-1.2 -75.9,-0.7 -110.8,0 -11.4,0.2 -22.9,0.4 -34.1,0.5 -6.6,0 -13.3,0.2 -19.9,0.3 L 921.7,121 c -22.6,0.4 -45.2,0.7 -67.9,1.1 -107,1.7 -211.7,5.8 -314.6,36.3 -93.9,27.9 -174.2,69.9 -238.8,125 -61.7,52.7 -112.3,119.1 -146.2,192.2 -34.7,74.7 -53,158.7 -53,243.1 0,84.4 8.9,118.7 26.5,175 17.1,54.8 42.2,106.8 74.7,154.5 37.8,55.6 85,104.4 140.4,145.1 52,38.2 112.9,70.8 181,96.7 4.5,1.7 9,3.4 13.4,5 l 437.5,157.6 c 41.6,15 77.2,26.5 115.8,34 41.3,8.1 81.7,12.1 120.1,12.1 h 572.5 c 38.4,0 78.8,-4.1 120.1,-12.1 38.6,-7.5 74.2,-19 115.8,-34 l 405.4,-146 c 2,-0.7 4.1,-1.5 6.1,-2.2 3.4,-1.2 6.8,-2.5 10.2,-3.7 73.7,-27.3 131.6,-55.2 182.3,-87.8 63.3,-40.8 114.8,-86.9 153.2,-137.1 25.8,-33.7 48,-70.3 66,-108.8 18.4,-39.2 32.5,-80.6 42,-123 9.7,-43.4 14.6,-88.2 14.6,-133.1 0,-84.3 -18.6,-169.5 -53.9,-246.5 v 0 z m -841.2,946 c -39.6,14.3 -73.3,25.2 -109.1,32.2 -38.5,7.5 -76,11.3 -111.5,11.3 h -572.5 c -35.5,0 -73.1,-3.8 -111.5,-11.3 -35.8,-7 -69.5,-17.9 -109.1,-32.2 L 639.8,1284 c 22.8,4.6 66.6,9.8 90,10.1 5.3,0 10.5,0.2 15.8,0.2 7.1,0 14.2,0.2 21.2,0.3 8.8,0.1 17.5,0.2 26.3,0.4 10.3,0.2 20.6,0.3 31,0.4 11.8,0.2 23.5,0.3 35.3,0.5 13.1,0.2 26.2,0.4 39.2,0.6 14.3,0.2 28.5,0.4 42.8,0.6 15.4,0.2 30.7,0.4 46.1,0.7 16.3,0.2 32.6,0.5 48.9,0.7 17.2,0.2 34.3,0.5 51.5,0.7 17.9,0.2 35.7,0.5 53.6,0.8 18.5,0.3 36.9,0.5 55.4,0.8 18.9,0.3 37.9,0.5 56.8,0.8 19.3,0.3 38.6,0.6 57.9,0.8 19.5,0.3 39.1,0.6 58.6,0.8 19.7,0.3 39.3,0.6 58.9,0.8 19.6,0.3 39.3,0.6 58.9,0.8 19.5,0.3 39,0.6 58.5,0.8 19.3,0.3 38.5,0.6 57.8,0.8 18.9,0.3 37.8,0.5 56.7,0.8 18.4,0.3 36.8,0.5 55.2,0.8 17.8,0.2 35.6,0.5 53.4,0.8 17.1,0.2 34.1,0.5 51.2,0.7 16.2,0.2 32.4,0.5 48.7,0.7 15.2,0.2 30.5,0.4 45.7,0.7 14.2,0.2 28.3,0.4 42.4,0.6 12.9,0.2 25.9,0.4 38.8,0.6 11.6,0.2 23.2,0.3 34.8,0.5 10.2,0.1 20.3,0.3 30.4,0.4 8.6,0.1 17.1,0.2 25.7,0.4 6.9,0 13.8,0.2 20.6,0.3 5.1,0 10.1,0.1 15.2,0.2 3.1,0 6.3,0 9.4,0.1 1.1,0 2.1,0 3.2,0 35.7,1.1 85.9,2.7 123.6,3.9 l -255.8,92.2 v 0 z M 2841,824.8 c -27.9,123.7 -99.2,233.7 -200.9,309.5 -116.4,86.8 -252.8,130.2 -397.3,129.4 -7.4,0 -14.8,-0.1 -22.2,-0.2 -53.4,-0.7 -106.5,-3.2 -159.9,-3.2 -55.1,-0.8 -110.3,-1.6 -165.4,-2.4 -64.1,-0.9 -128.2,-1.8 -192.2,-2.8 -68.4,-1 -136.8,-2 -205.2,-2.9 -68.1,-1 -136.2,-1.9 -204.3,-2.9 -63.2,-0.9 -126.3,-1.8 -189.5,-2.7 -53.6,-0.8 -107.2,-1.5 -160.9,-2.3 -39.5,-0.6 -78.9,-1.1 -118.3,-1.7 -13.5,-0.2 -26.9,-0.4 -40.4,-0.6 -10.3,0 -20.7,-0.2 -31.1,-0.3 -8.9,0 -17.9,-0.2 -26.8,-0.4 -1.2,0 -2.4,0 -3.6,0 -37.3,-0.8 -74.6,-2.8 -111.5,-7.9 -29.8,-4.2 -57.5,-10.5 -84.3,-20.3 -18.1,-5.5 -36.3,-11.8 -55,-19.2 -94.5,-37.2 -175.3,-98.1 -232.7,-182.2 -29.7,-43.6 -52.8,-91 -68.4,-141.1 -16.1,-51.5 -24.2,-105.3 -24.2,-159.9 0,-54.6 16.8,-153.7 48.4,-221.8 31,-66.5 77.2,-127.1 133.6,-175 59.3,-50.4 133.6,-89.1 220.8,-114.9 96.9,-28.6 197.5,-32.5 300.6,-34.1 22.5,-0.4 45,-0.7 67.5,-1.1 l 1116.7,-18 h 5.9 c 6.6,-0.2 13.2,-0.3 19.7,-0.4 h 0.8 c 10.9,-0.2 22.2,-0.3 33.3,-0.5 17.7,-0.3 41.1,-0.7 64.8,-0.6 20.6,0 39.1,0.1 56.4,0.7 37.1,1.1 72.8,3.6 106.2,7.3 26.3,3 51.7,6.8 75.5,11.5 25.5,5 49.9,11 72.7,18 73,22.3 140.7,61.1 201.3,115.2 56.1,50.1 102.3,112.5 133.8,180.4 32.6,70.4 49.8,148.4 49.8,225.5 0,77.1 -4.6,82.2 -13.5,122 v 0 z"
         id="path18" />
      <g
         id="g45">
        <rect
           x="1505.2"
           y="1559.7"
           width="14"
           height="14"
           id="rect18" />
        <rect
           class="cls-7"
           x="1491.2"
           y="1559.7"
           width="14"
           height="14"
           id="rect19" />
        <rect
           class="cls-7"
           x="1505.2"
           y="1545.7"
           width="14"
           height="14"
           id="rect20" />
        <rect
           class="cls-7"
           x="1491.2"
           y="1531.7"
           width="14"
           height="14"
           id="rect21" />
        <rect
           class="cls-7"
           x="1505.2"
           y="1517.7"
           width="14"
           height="14"
           id="rect22" />
        <rect
           class="cls-7"
           x="1491.2"
           y="1503.7"
           width="14"
           height="14"
           id="rect23" />
        <rect
           class="cls-7"
           x="1505.2"
           y="1489.8"
           width="14"
           height="14"
           id="rect24" />
        <rect
           class="cls-7"
           x="1491.2"
           y="1475.8"
           width="14"
           height="14"
           id="rect25" />
        <rect
           class="cls-7"
           x="1505.2"
           y="1461.8"
           width="14"
           height="14"
           id="rect26" />
        <rect
           class="cls-7"
           x="1491.2"
           y="1447.8"
           width="14"
           height="14"
           id="rect27" />
        <rect
           class="cls-7"
           x="1505.2"
           y="1433.8"
           width="14"
           height="14"
           id="rect28" />
        <rect
           class="cls-7"
           x="1491.2"
           y="1419.8"
           width="14"
           height="14"
           id="rect29" />
        <rect
           class="cls-7"
           x="1505.2"
           y="1405.8"
           width="14"
           height="14"
           id="rect30" />
        <rect
           class="cls-7"
           x="1491.2"
           y="1391.8"
           width="14"
           height="14"
           id="rect31" />
        <rect
           class="cls-7"
           x="1505.2"
           y="1377.8"
           width="14"
           height="14"
           id="rect32" />
        <rect
           x="1491.2"
           y="1545.7"
           width="14"
           height="14"
           id="rect33" />
        <rect
           x="1505.2"
           y="1531.7"
           width="14"
           height="14"
           id="rect34" />
        <rect
           x="1491.2"
           y="1517.7"
           width="14"
           height="14"
           id="rect35" />
        <rect
           x="1505.2"
           y="1503.7"
           width="14"
           height="14"
           id="rect36" />
        <rect
           x="1491.2"
           y="1489.8"
           width="14"
           height="14"
           id="rect37" />
        <rect
           x="1505.2"
           y="1475.8"
           width="14"
           height="14"
           id="rect38" />
        <rect
           x="1491.2"
           y="1461.8"
           width="14"
           height="14"
           id="rect39" />
        <rect
           x="1505.2"
           y="1447.8"
           width="14"
           height="14"
           id="rect40" />
        <rect
           x="1491.2"
           y="1433.8"
           width="14"
           height="14"
           id="rect41" />
        <rect
           x="1505.2"
           y="1419.8"
           width="14"
           height="14"
           id="rect42" />
        <rect
           x="1491.2"
           y="1405.8"
           width="14"
           height="14"
           id="rect43" />
        <rect
           x="1505.2"
           y="1391.8"
           width="14"
           height="14"
           id="rect44" />
        <rect
           x="1491.2"
           y="1377.8"
           width="14"
           height="14"
           id="rect45" />
      </g>
      <g
         id="g68"
         style="fill:#000000;stroke:#000000;stroke-opacity:1">
        <line
           class="cls-3"
           x1="1337.7"
           y1="1631.9"
           x2="1614.3"
           y2="1631.9"
           id="line67"
           style="fill:#000000;stroke:#000000;stroke-opacity:1" />
        <polygon
           class="cls-2"
           points="1594.2,1603.6 1663.5,1631.9 1594.2,1660.2 1610.6,1631.9 "
           id="polygon67"
           style="fill:#000000;stroke:#000000;stroke-opacity:1" />
      </g>
      <g
         id="g70">
        <path
           d="m 581.6,1070.2 c 3.4,0 6.2,0.5 8.6,1.5 2.4,1 4.3,2.3 5.8,3.9 1.5,1.6 2.6,3.4 3.2,5.5 0.7,2.1 1,4.2 1,6.4 0,2.2 -0.3,4.3 -1,6.3 -0.7,2 -1.8,3.9 -3.2,5.5 -1.5,1.6 -3.4,2.9 -5.8,3.9 -2.4,1 -5.2,1.5 -8.6,1.5 h -12.4 v 19.2 h -11.8 v -53.7 z m -3.2,25.2 c 1.3,0 2.7,0 3.9,-0.3 1.2,-0.2 2.4,-0.6 3.3,-1.2 1,-0.6 1.7,-1.4 2.3,-2.4 0.6,-1.1 0.9,-2.4 0.9,-4.1 0,-1.7 -0.3,-3.1 -0.9,-4.1 -0.6,-1.1 -1.3,-1.9 -2.3,-2.4 -1,-0.6 -2.1,-1 -3.3,-1.2 -1.2,-0.2 -2.6,-0.3 -3.9,-0.3 h -9.2 v 16.1 h 9.2 z"
           id="path68" />
        <path
           d="m 619.4,1070.2 v 53.7 h -11.8 v -53.7 z"
           id="path69" />
        <path
           d="m 625.5,1080.1 v -9.9 h 44 v 9.9 h -16.1 v 43.8 h -11.8 v -43.8 z"
           id="path70" />
      </g>
      <polygon
         points="581.4,1148.8 650.7,1177.1 581.4,1205.5 597.8,1177.1 "
         id="polygon70" />
    </g>
  </g>
</svg>
