<?xml version="1.0" encoding="UTF-8" standalone="no"?>
<!-- Created with Inkscape (http://www.inkscape.org/) -->

<svg
   width="1254.986"
   height="672.37732"
   id="svg2383"
   sodipodi:version="0.32"
   inkscape:version="1.4.2 (f4327f4, 2025-05-13)"
   sodipodi:docname="Daytona_International_Speedway edited.svg"
   inkscape:output_extension="org.inkscape.output.svg.inkscape"
   version="1.0"
   inkscape:export-filename="D:\Images\Race Tracks\Daytona International Speedway.png"
   inkscape:export-xdpi="200"
   inkscape:export-ydpi="200"
   xmlns:inkscape="http://www.inkscape.org/namespaces/inkscape"
   xmlns:sodipodi="http://sodipodi.sourceforge.net/DTD/sodipodi-0.dtd"
   xmlns:xlink="http://www.w3.org/1999/xlink"
   xmlns="http://www.w3.org/2000/svg"
   xmlns:svg="http://www.w3.org/2000/svg"
   xmlns:rdf="http://www.w3.org/1999/02/22-rdf-syntax-ns#"
   xmlns:cc="http://creativecommons.org/ns#"
   xmlns:dc="http://purl.org/dc/elements/1.1/">
  <defs
     id="defs2385">
    <pattern
       patternUnits="userSpaceOnUse"
       width="18.181098"
       height="18.137641"
       patternTransform="matrix(0.1737876,0,0,0.1737876,763.47719,1693.9071)"
       id="pattern4912">
      <g
         id="g4907"
         transform="translate(-1025.5348,-1215.2814)">
        <rect
           style="opacity:1;fill:#000000;fill-opacity:1;stroke:none;stroke-width:0.5;stroke-linecap:round;stroke-linejoin:round;stroke-miterlimit:4;stroke-dasharray:none;stroke-dashoffset:0;stroke-opacity:1"
           id="rect4899"
           width="18.172573"
           height="18.095789"
           x="1025.5348"
           y="1215.2814" />
        <rect
           style="opacity:1;fill:#ffffff;fill-opacity:1;stroke:none;stroke-width:0.5;stroke-linecap:round;stroke-linejoin:round;stroke-miterlimit:4;stroke-dasharray:none;stroke-dashoffset:0;stroke-opacity:1"
           id="rect4903"
           width="9.0746527"
           height="9.0746527"
           x="1025.5348"
           y="1215.2814" />
        <rect
           style="opacity:1;fill:#ffffff;fill-opacity:1;stroke:none;stroke-width:0.5;stroke-linecap:round;stroke-linejoin:round;stroke-miterlimit:4;stroke-dasharray:none;stroke-dashoffset:0;stroke-opacity:1"
           id="rect4905"
           width="9.0746527"
           height="9.0746527"
           x="1034.6412"
           y="1224.3444" />
      </g>
    </pattern>
    <pattern
       inkscape:collect="always"
       xlink:href="#pattern4912"
       id="pattern4166"
       patternTransform="matrix(0.4562459,0,0,0.4562459,-1346.318,-1561.9598)" />
    <inkscape:perspective
       sodipodi:type="inkscape:persp3d"
       inkscape:vp_x="0 : 526.18109 : 1"
       inkscape:vp_y="0 : 1000 : 0"
       inkscape:vp_z="744.09448 : 526.18109 : 1"
       inkscape:persp3d-origin="372.04724 : 350.78739 : 1"
       id="perspective2391" />
    <inkscape:perspective
       id="perspective2457"
       inkscape:persp3d-origin="372.04724 : 350.78739 : 1"
       inkscape:vp_z="744.09448 : 526.18109 : 1"
       inkscape:vp_y="0 : 1000 : 0"
       inkscape:vp_x="0 : 526.18109 : 1"
       sodipodi:type="inkscape:persp3d" />
  </defs>
  <sodipodi:namedview
     id="base"
     pagecolor="#ffffff"
     bordercolor="#ffffff"
     borderopacity="0.0"
     inkscape:pageopacity="0.0"
     inkscape:pageshadow="0"
     inkscape:zoom="0.61349485"
     inkscape:cx="533.01181"
     inkscape:cy="227.38577"
     inkscape:document-units="px"
     inkscape:current-layer="layer1"
     showgrid="false"
     inkscape:window-width="1677"
     inkscape:window-height="1031"
     inkscape:window-x="225"
     inkscape:window-y="0"
     inkscape:showpageshadow="2"
     inkscape:pagecheckerboard="0"
     inkscape:deskcolor="#d1d1d1"
     inkscape:window-maximized="0" />
  <metadata
     id="metadata2388">
    <rdf:RDF>
      <cc:Work
         rdf:about="">
        <dc:format>image/svg+xml</dc:format>
        <dc:type
           rdf:resource="http://purl.org/dc/dcmitype/StillImage" />
        <cc:license
           rdf:resource="http://creativecommons.org/publicdomain/zero/1.0/" />
        <dc:date>7-5-2008</dc:date>
        <dc:creator>
          <cc:Agent>
            <dc:title>Will Pittenger</dc:title>
          </cc:Agent>
        </dc:creator>
        <dc:rights>
          <cc:Agent>
            <dc:title />
          </cc:Agent>
        </dc:rights>
        <dc:publisher>
          <cc:Agent>
            <dc:title>Will Pittenger</dc:title>
          </cc:Agent>
        </dc:publisher>
        <dc:subject>
          <rdf:Bag>
            <rdf:li>Racing</rdf:li>
            <rdf:li>Rolex</rdf:li>
            <rdf:li />
            <rdf:li>Speedway</rdf:li>
            <rdf:li>NASCAR</rdf:li>
          </rdf:Bag>
        </dc:subject>
        <dc:description>Created with Inkscape based on data from Google Earth</dc:description>
      </cc:Work>
      <cc:License
         rdf:about="http://creativecommons.org/publicdomain/zero/1.0/">
        <cc:permits
           rdf:resource="http://creativecommons.org/ns#Reproduction" />
        <cc:permits
           rdf:resource="http://creativecommons.org/ns#Distribution" />
        <cc:permits
           rdf:resource="http://creativecommons.org/ns#DerivativeWorks" />
      </cc:License>
    </rdf:RDF>
  </metadata>
  <g
     inkscape:label="Layer 1"
     inkscape:groupmode="layer"
     id="layer1"
     transform="translate(-586.22587,-976.27039)">
    <path
       style="fill:#000000;fill-opacity:1;fill-rule:evenodd;stroke:#ffffff;stroke-width:0.75;stroke-linecap:round;stroke-linejoin:round;stroke-miterlimit:4;stroke-dasharray:none;stroke-opacity:1"
       d="M 1573.59,977.08459 C 1571.8293,977.06685 1570.0593,977.07234 1568.3079,977.06739 C 1337.0995,976.41387 1105.828,976.48384 874.614,977.52786 C 854.70311,977.61774 834.6209,978.23703 814.69483,980.48867 C 796.94754,982.49409 778.28098,984.46685 760.75426,990.48282 C 738.1396,998.24551 716.12872,1009.1542 695.68547,1021.3417 C 679.61338,1030.9233 663.03938,1042.0515 650.31217,1056.4902 C 634.12429,1074.8545 620.30565,1096.5944 609.80936,1118.6843 C 600.32542,1138.6436 594.39178,1160.7346 590.56407,1182.2316 C 587.00994,1202.1923 585.44386,1223.3753 587.55325,1243.7132 C 589.74299,1264.8259 596.03709,1285.8186 603.29157,1305.4324 C 609.92452,1323.3657 618.41214,1341.4711 629.58338,1357.2773 C 641.10999,1373.5863 654.81028,1390.1314 671.65428,1401.9521 C 699.37236,1421.4044 730.65558,1436.9164 761.81501,1450.2941 C 872.58927,1497.8526 984.71834,1552.4323 1101.4422,1584.6763 C 1142.1595,1595.924 1171.3691,1601.9722 1213.1687,1598.8699 C 1228.2471,1597.7509 1247.5547,1598.4866 1263.6035,1596.5538 C 1285.9444,1593.8635 1308.2624,1588.9661 1329.8462,1582.7234 C 1357.2503,1574.7973 1383.9126,1564.4723 1410.2758,1554.1878 C 1503.8273,1517.6921 1598.0053,1481.8768 1690.2537,1442.1377 C 1710.0939,1433.5908 1729.429,1422.5986 1746.3638,1409.2153 C 1764.2697,1395.0644 1780.1063,1377.6778 1794.1564,1360.0833 C 1803.0927,1348.8925 1808.9851,1335.7905 1814.7404,1323.57 C 1822.0863,1307.9722 1829.7621,1291.789 1834.4589,1274.6922 C 1838.5118,1259.9394 1840.1286,1244.3892 1840.569,1229.3418 C 1841.1257,1210.3326 1841.1167,1190.4935 1837.5044,1171.3896 C 1834.1162,1153.4712 1827.4142,1135.9531 1819.7739,1119.6934 C 1811.4753,1102.0328 1801.6765,1084.1737 1789.2751,1068.7289 C 1777.1441,1053.6209 1762.5461,1039.4208 1746.3937,1028.4131 C 1726.2793,1014.7052 1703.7639,1002.9982 1680.774,994.74612 C 1658.1394,986.62164 1633.9599,983.3072 1610.825,979.67978 C 1598.4304,977.73639 1585.9149,977.20882 1573.59,977.08459 z M 1578.6601,987.19332 C 1589.02,987.40943 1599.2989,987.99167 1609.2734,989.55562 C 1632.532,993.2024 1656.1198,996.5011 1677.4195,1004.1465 C 1699.5257,1012.0814 1721.3451,1023.4263 1740.7816,1036.6721 C 1755.9368,1047.0003 1769.8927,1060.5667 1781.4854,1075.0043 C 1793.1399,1089.5189 1802.6354,1106.6835 1810.7451,1123.9421 C 1818.1616,1139.7255 1824.5199,1156.5237 1827.682,1173.2463 C 1831.0583,1191.1019 1831.123,1210.2762 1830.5725,1229.0693 C 1830.1473,1243.594 1828.5504,1258.376 1824.7934,1272.0511 C 1820.4077,1288.0157 1813.0492,1303.7177 1805.7027,1319.3169 C 1799.9079,1331.621 1794.2284,1343.987 1786.348,1353.8554 C 1772.5824,1371.0938 1757.2108,1387.9086 1740.1836,1401.365 C 1724.0642,1414.104 1705.4305,1424.7128 1686.2893,1432.9587 C 1623.5183,1459.9994 1559.7743,1485.2218 1495.8763,1510.1323 C 1470.0804,1519.8684 1444.4293,1529.922 1417.6877,1531.6823 C 1285.9873,1540.3517 1151.6723,1532.4673 1018.6277,1531.8314 C 1011.1996,1531.7959 1003.6299,1531.7615 996.73053,1529.6834 C 955.07773,1517.1385 913.98173,1501.9439 872.57992,1487.9414 C 836.83743,1472.2928 801.25907,1456.3663 765.75848,1441.125 C 734.94712,1427.8967 704.28752,1412.645 677.42074,1393.7902 C 662.09827,1383.0371 648.93923,1367.359 637.73758,1351.5098 C 627.2693,1336.6982 619.10726,1319.3529 612.67882,1301.9725 C 605.57992,1282.7796 599.57078,1262.5327 597.51416,1242.7034 C 595.53047,1223.5778 596.97824,1203.2137 600.40473,1183.97 C 604.12524,1163.0749 609.89653,1141.8041 618.84636,1122.9689 C 628.97255,1101.6579 642.33524,1080.6612 657.79962,1063.1176 C 669.35439,1050.0092 685.06133,1039.2949 700.78767,1029.9195 C 720.76636,1018.009 742.24281,1007.4365 764.02467,999.9599 C 780.10845,994.43912 798.01859,992.46068 815.79831,990.45155 C 835.1816,988.26123 854.92137,987.61998 874.65389,987.5309 C 1105.8401,986.48702 1337.0979,986.41566 1568.2854,987.06913 C 1571.7504,987.07892 1575.2068,987.12129 1578.6601,987.19332 z M 895.15988,1497.7617 C 928.73057,1509.4003 962.23784,1521.3931 996.15865,1531.6094 C 1003.4383,1533.8018 1011.1945,1533.796 1018.6169,1533.8316 C 1151.5891,1534.4673 1285.9653,1542.3351 1417.8337,1533.6545 C 1428.6829,1532.9404 1439.329,1530.8919 1449.833,1528.0754 C 1435.4385,1533.6674 1421.0413,1539.2488 1406.6585,1544.8598 C 1380.3083,1555.1393 1353.9133,1565.3704 1327.0783,1573.1319 C 1305.9241,1579.2504 1284.1018,1584.0076 1262.4057,1586.6202 C 1247.6433,1588.3979 1228.4335,1587.6968 1212.4409,1588.8837 C 1171.9194,1591.891 1144.5434,1586.2111 1104.114,1575.0428 C 1033.2883,1555.4778 963.87231,1527.482 895.15988,1497.7617 z"
       id="path2463" />
    <path
       style="fill:none;fill-rule:evenodd;stroke:none;stroke-width:1px;stroke-linecap:butt;stroke-linejoin:miter;stroke-opacity:1"
       d="M 1130.6254,1619.4406 C 1251.4225,1629.6013 1342.3424,1610.549 1342.3424,1610.549"
       id="path3315"
       sodipodi:nodetypes="cs" />
    <path
       sodipodi:type="star"
       style="opacity:1;fill:#000000;fill-opacity:1;stroke:#ffffff;stroke-width:1;stroke-linecap:round;stroke-linejoin:miter;stroke-miterlimit:4;stroke-dasharray:none;stroke-dashoffset:0;stroke-opacity:1"
       id="path3463"
       sodipodi:sides="3"
       sodipodi:cx="1683.6964"
       sodipodi:cy="1391.4535"
       sodipodi:r1="14.134234"
       sodipodi:r2="7.0671172"
       sodipodi:arg1="0.52359878"
       sodipodi:arg2="1.5707963"
       inkscape:flatsided="true"
       inkscape:rounded="0"
       inkscape:randomized="0"
       d="M 1695.937,1398.5206 L 1671.4558,1398.5206 L 1683.6964,1377.3193 L 1695.937,1398.5206 z"
       transform="matrix(1.312439e-2,0.5138332,-1.5573858,3.9778877e-2,3333.3941,689.57233)" />
    <rect
       style="opacity:1;fill:url(#pattern4166);fill-opacity:1;stroke:#000000;stroke-width:0.7640143;stroke-linecap:round;stroke-linejoin:round;stroke-miterlimit:4;stroke-dasharray:none;stroke-dashoffset:0;stroke-opacity:1;display:inline"
       id="rect3457"
       width="11.30081"
       height="45.983616"
       x="-1187.8818"
       y="-1640.5593"
       transform="matrix(-0.9997089,2.4127629e-2,-2.4127629e-2,-0.9997089,0,0)"
       ry="0" />
  </g>
</svg>
